<?xml version="1.0" standalone="no"?>
<!DOCTYPE svg PUBLIC "-//W3C//DTD SVG 20010904//EN"
 "http://www.w3.org/TR/2001/REC-SVG-20010904/DTD/svg10.dtd">
<svg version="1.0" xmlns="http://www.w3.org/2000/svg"
 width="512.000000pt" height="512.000000pt" viewBox="0 0 512.000000 512.000000"
 preserveAspectRatio="xMidYMid meet">
<metadata>
Created by potrace 1.11, written by Peter Selinger 2001-2013
</metadata>
<g transform="translate(0.000000,512.000000) scale(0.100000,-0.100000)"
fill="#000000" stroke="none">
<path d="M0 2535 l0 -1585 2560 0 2560 0 0 1585 0 1585 -2560 0 -2560 0 0
-1585z m1698 1190 c150 -36 237 -129 264 -283 23 -136 -25 -277 -119 -348 -84
-64 -137 -77 -345 -82 l-188 -4 0 -204 0 -204 -125 0 -125 0 0 570 0 570 288
0 c219 0 302 -4 350 -15z m1060 0 c183 -43 299 -157 358 -351 25 -81 26 -302
1 -392 -56 -206 -196 -341 -387 -371 -36 -6 -185 -11 -332 -11 l-268 0 0 570
0 570 283 0 c214 0 297 -4 345 -15z m1362 -90 l0 -105 -275 0 -275 0 0 -130 0
-130 240 0 240 0 0 -100 0 -100 -240 0 -240 0 0 -235 0 -235 -125 0 -125 0 0
570 0 570 400 0 400 0 0 -105z"/>
<path d="M1310 3375 l0 -178 145 5 c120 5 152 9 189 28 112 54 115 234 4 291
-37 20 -63 23 -190 27 l-148 4 0 -177z"/>
<path d="M2380 3170 l0 -360 133 0 c173 0 225 14 288 79 69 71 94 157 86 299
-7 139 -26 192 -92 259 -70 69 -118 83 -287 83 l-128 0 0 -360z"/>
</g>
</svg>
